<svg width="22" height="22" viewBox="0 0 22 22" fill="none" xmlns="http://www.w3.org/2000/svg">
<path d="M10.996 11.0006H11.004ZM14.991 11.0006H15ZM7 11.0006H7.009ZM21 10.5675C21 15.8508 16.522 20.1341 11 20.1341C10.3487 20.1347 9.70366 20.0755 9.065 19.9561C8.606 19.8691 8.377 19.8261 8.217 19.8511C8.057 19.8751 7.829 19.9961 7.375 20.2371C6.08134 20.9261 4.5928 21.1575 3.151 20.8941C3.70174 20.2133 4.0752 19.4064 4.238 18.546C4.338 18.016 4.09 17.5009 3.718 17.1239C2.034 15.4118 1 13.1057 1 10.5675C1 5.28424 5.478 1 11 1C16.522 1 21 5.28424 21 10.5675Z" fill="black"/>
<path d="M10.996 11.0006H11.004M14.991 11.0006H15M7 11.0006H7.009M21 10.5675C21 15.8508 16.522 20.1341 11 20.1341C10.3487 20.1347 9.70366 20.0755 9.065 19.9561C8.606 19.8691 8.377 19.8261 8.217 19.8511C8.057 19.8751 7.829 19.9961 7.375 20.2371C6.08134 20.9261 4.5928 21.1575 3.151 20.8941C3.70174 20.2133 4.0752 19.4064 4.238 18.546C4.338 18.016 4.09 17.5009 3.718 17.1239C2.034 15.4118 1 13.1057 1 10.5675C1 5.28424 5.478 1 11 1C16.522 1 21 5.28424 21 10.5675Z" stroke="black" stroke-width="0.5"/>
</svg>
