<svg width="12" height="9" viewBox="0 0 12 9" fill="none" xmlns="http://www.w3.org/2000/svg">
<path fill-rule="evenodd" clip-rule="evenodd" d="M11.78 0.219996C11.9204 0.360616 11.9993 0.551246 11.9993 0.749996C11.9993 0.948746 11.9204 1.13937 11.78 1.28L4.53 8.53C4.38937 8.6704 4.19875 8.7493 4 8.7493C3.80125 8.7493 3.61062 8.6704 3.47 8.53L0.220004 5.28C0.0875236 5.13782 0.0154036 4.94978 0.0188236 4.75547C0.0222536 4.56117 0.100963 4.37579 0.238383 4.23837C0.375793 4.10096 0.561184 4.02225 0.755484 4.01882C0.949784 4.01539 1.13782 4.08752 1.28 4.22L4 6.94L10.72 0.219996C10.8606 0.079546 11.0512 0.000656128 11.25 0.000656128C11.4487 0.000656128 11.6394 0.079546 11.78 0.219996Z" fill="white"/>
</svg>
