<svg width="28" height="22" viewBox="0 0 28 22" fill="none" xmlns="http://www.w3.org/2000/svg">
<path d="M22.8209 9.46593C22.8209 9.92729 23.1162 10.3318 23.5197 10.4655C24.646 10.8434 25.6111 11.6503 26.2399 12.7398C26.8687 13.8293 27.1195 15.1293 26.9468 16.4038C26.7741 17.6783 26.1894 18.8428 25.2988 19.6861C24.4081 20.5294 23.2705 20.9956 22.0925 21H7.50352C7.41915 21 7.33572 20.9974 7.25322 20.9923C7.16135 20.9974 7.06901 21 6.97621 21C5.39122 21 3.87115 20.3114 2.75039 19.0857C1.62963 17.8599 1 16.1975 1 14.464C1 12.7306 1.62963 11.0681 2.75039 9.8424C3.87115 8.61666 5.39122 7.92805 6.97621 7.92805C7.11501 7.92808 7.24988 7.87763 7.35959 7.78464C7.46931 7.69165 7.54764 7.56141 7.58226 7.4144C8.03867 5.40999 9.14996 3.65752 10.7065 2.48756C12.2631 1.31759 14.1573 0.811018 16.0319 1.06339C17.9064 1.31575 19.6318 2.30962 20.8824 3.85751C22.1331 5.4054 22.8226 7.4003 22.8209 9.46593Z" fill="black" stroke="black" stroke-width="0.5"/>
</svg>
