<svg width="20" height="20" viewBox="0 0 20 20" fill="none" xmlns="http://www.w3.org/2000/svg">
<path d="M6.73585 2.02889L0.265897 7.69C-0.289654 8.17556 0.0836762 9.03778 0.847004 9.03778C1.31367 9.03778 1.69255 9.38778 1.69255 9.81889V13.4233C1.69255 16.5233 1.69255 18.0733 2.73588 19.0367C3.7781 20 5.45586 20 8.81362 20H11.1869C14.5436 20 16.2224 20 17.2647 19.0367C18.308 18.0733 18.308 16.5233 18.308 13.4233V9.81889C18.308 9.38778 18.6858 9.03778 19.1524 9.03778C19.9169 9.03778 20.2891 8.17556 19.7346 7.69L13.2647 2.02889C11.7191 0.677778 10.9458 0 10.0003 0C9.05473 0 8.2814 0.676667 6.73585 2.02889Z" fill="black"/>
</svg>
