<svg width="22" height="22" viewBox="0 0 22 22" fill="none" xmlns="http://www.w3.org/2000/svg">
<path d="M4.97575 14.482C3.40343 15.324 -0.719034 17.044 1.79223 19.197C3.01786 20.248 4.38349 21 6.10026 21H15.8986C17.6165 21 18.9821 20.248 20.2078 19.197C22.719 17.044 18.5966 15.324 17.0243 14.482C15.1995 13.5119 13.1189 13.0001 10.9994 13.0001C8.88003 13.0001 6.80054 13.5119 4.97575 14.482ZM16.0009 5.5C16.0009 6.69347 15.474 7.83807 14.5363 8.68198C13.5986 9.52589 12.3267 10 11.0006 10C9.67439 10 8.40255 9.52589 7.46481 8.68198C6.52707 7.83807 6.00026 6.69347 6.00026 5.5C6.00026 4.30653 6.52707 3.16193 7.46481 2.31802C8.40255 1.47411 9.67439 1 11.0006 1C12.3267 1 13.5986 1.47411 14.5363 2.31802C15.474 3.16193 16.0009 4.30653 16.0009 5.5Z" fill="black" stroke="black"/>
</svg>
